<svg width="205.029" height="100.342" viewBox="0 0 205.029 100.342" xmlns="http://www.w3.org/2000/svg">
    <g id="svgGroup" stroke-linecap="round" fill-rule="evenodd" font-size="9pt" stroke="#000" stroke-width="0.25mm"
       fill="#95BDFF" style="stroke:#95BDFF;stroke-width:0.25mm;fill:#95BDFF">
        <path d="M 145.068 4.834 L 147.363 5.225 L 150.928 4.443 Q 152.295 4.443 153.125 5.029 A 3.816 3.816 0 0 1 153.467 5.299 Q 153.955 5.735 153.955 6.128 A 3.092 3.092 0 0 1 153.936 6.453 Q 153.886 6.915 153.711 7.617 A 21.826 21.826 0 0 0 153.596 8.128 Q 153.089 10.459 150.638 22.37 A 13243.66 13243.66 0 0 0 149.756 26.66 A 4892.631 4892.631 0 0 0 148.026 35.12 Q 145.618 46.948 144.336 53.613 A 574.652 574.652 0 0 0 150.953 44.419 Q 153.873 40.282 157.065 35.635 A 1137.699 1137.699 0 0 0 163.721 25.83 A 431.918 431.918 0 0 0 167.553 20.031 Q 173.458 10.924 175.685 6.234 A 22.78 22.78 0 0 0 176.66 3.906 A 9.324 9.324 0 0 1 177.142 2.745 Q 177.435 2.162 177.787 1.71 A 4.711 4.711 0 0 1 178.174 1.27 A 6.942 6.942 0 0 1 178.68 0.808 Q 179.308 0.294 179.834 0.171 Q 180.402 0.038 181.44 0.009 A 22.402 22.402 0 0 1 182.08 0 Q 183.594 0 185.669 0.659 A 4.977 4.977 0 0 1 186.522 1.012 Q 186.956 1.246 187.236 1.543 A 1.815 1.815 0 0 1 187.744 2.832 A 5.307 5.307 0 0 1 187.405 4.41 Q 186.042 8.446 179.199 19.434 A 515.218 515.218 0 0 1 170.05 33.582 A 652.717 652.717 0 0 1 159.692 48.584 Q 149.887 62.386 142.953 71.031 A 226.458 226.458 0 0 1 141.357 72.998 Q 140.039 74.609 138.159 74.609 A 12.027 12.027 0 0 1 135.733 74.352 A 15.12 15.12 0 0 1 134.204 73.95 A 4.536 4.536 0 0 1 133.321 73.572 Q 132.837 73.295 132.549 72.922 A 2.052 2.052 0 0 1 132.129 71.631 A 28.377 28.377 0 0 1 132.433 68.381 Q 133.822 57.951 141.553 20.02 A 205.635 205.635 0 0 0 136.179 27.351 Q 129.895 36.298 121.973 49.121 A 726.831 726.831 0 0 0 117.836 55.839 Q 109.878 68.932 108.468 72.847 A 10.215 10.215 0 0 0 108.398 73.047 Q 107.555 75.717 106.487 76.23 A 1.325 1.325 0 0 1 106.397 76.27 Q 105.615 76.611 104.736 76.611 L 100.879 77.051 Q 99.756 77.051 98.804 76.416 Q 97.954 75.849 97.863 75.243 A 0.98 0.98 0 0 1 97.852 75.098 A 3.994 3.994 0 0 1 98.066 74.011 Q 98.863 71.416 102.626 64.552 A 241.416 241.416 0 0 1 103.247 63.428 A 378.482 378.482 0 0 1 109.094 53.29 A 505.645 505.645 0 0 1 115.845 42.31 A 405.097 405.097 0 0 1 130.908 20.117 A 220.059 220.059 0 0 1 134.616 15.164 Q 139.844 8.398 143.066 5.615 Q 143.945 4.834 145.068 4.834 Z M 74.707 19.922 A 23.987 23.987 0 0 0 75.44 19.073 Q 77.881 16.1 77.881 13.916 Q 77.881 8.594 75.684 6.396 Q 75.017 5.73 73.694 5.113 A 16.5 16.5 0 0 0 72.559 4.639 A 12.531 12.531 0 0 0 72.005 4.444 A 13.286 13.286 0 0 0 67.871 3.809 A 42.225 42.225 0 0 0 60.413 4.498 A 55.115 55.115 0 0 0 52.49 6.567 A 75.91 75.91 0 0 0 36.963 13.867 Q 29.59 18.408 22.754 24.414 A 106.212 106.212 0 0 0 18.468 28.39 A 88.128 88.128 0 0 0 10.938 36.743 A 72.474 72.474 0 0 0 8.02 40.712 A 60.236 60.236 0 0 0 2.979 49.561 A 42.64 42.64 0 0 0 2.24 51.266 Q 0 56.771 0 61.45 A 20.004 20.004 0 0 0 0.09 63.388 Q 0.478 67.369 2.539 69.629 A 8.047 8.047 0 0 0 5.834 71.87 Q 9.802 73.307 16.012 71.018 A 39.185 39.185 0 0 0 19.385 69.58 Q 21.826 68.408 24.731 66.504 Q 27.637 64.6 31.055 62.012 A 50.584 50.584 0 0 0 32.634 60.76 Q 35.869 58.1 41.113 53.125 Q 39.09 56.14 30.781 65.344 A 750.021 750.021 0 0 1 26.611 69.922 Q 20.264 76.807 17.676 79.688 A 240.484 240.484 0 0 0 15.998 80.98 Q 5.686 88.997 2.881 93.115 A 30.32 30.32 0 0 0 2.59 93.521 Q 0.781 96.091 0.781 97.314 Q 0.781 99.774 4.359 100.235 A 14.495 14.495 0 0 0 6.201 100.342 A 6.359 6.359 0 0 0 9.489 99.426 A 8.754 8.754 0 0 0 11.279 97.998 A 3779.109 3779.109 0 0 0 12.89 96.313 Q 22.034 86.74 25.765 82.689 A 139.836 139.836 0 0 0 27.295 81.006 A 1170.605 1170.605 0 0 0 28.659 79.994 Q 46.057 67.068 53.906 60.205 A 3.56 3.56 0 0 0 54.128 60.021 Q 54.541 59.646 54.541 59.351 Q 54.541 59.076 54.266 58.705 A 3.356 3.356 0 0 0 54.053 58.447 Q 53.667 58.023 52.279 57.934 A 12.739 12.739 0 0 0 51.465 57.91 A 8.964 8.964 0 0 0 51.152 57.916 A 6.963 6.963 0 0 0 46.582 59.717 A 118.063 118.063 0 0 1 42.7 63.123 A 157.526 157.526 0 0 1 38.281 66.699 A 461.301 461.301 0 0 1 42.663 60.831 A 519.311 519.311 0 0 1 63.477 35.205 Q 64.795 33.691 64.795 33.301 A 0.918 0.918 0 0 0 64.715 32.919 A 1.021 1.021 0 0 0 64.502 32.617 A 2.761 2.761 0 0 0 63.79 32.055 Q 62.867 31.533 61.276 31.371 A 15.497 15.497 0 0 0 59.717 31.299 Q 58.643 31.299 57.617 31.641 A 43.909 43.909 0 0 0 61.142 30.027 A 53.352 53.352 0 0 0 66.87 26.611 A 50.363 50.363 0 0 0 70.665 23.769 A 38.638 38.638 0 0 0 74.707 19.922 Z M 112.451 12.012 L 114.746 11.719 L 116.748 12.207 A 0.86 0.86 0 0 1 117.283 12.396 Q 117.403 12.488 117.513 12.626 A 1.753 1.753 0 0 1 117.529 12.646 A 2.082 2.082 0 0 1 117.715 12.926 Q 117.802 13.085 117.84 13.237 A 0.971 0.971 0 0 1 117.871 13.477 Q 117.871 13.857 116.901 15.484 A 38.167 38.167 0 0 1 116.846 15.576 A 126.989 126.989 0 0 1 115.878 17.16 Q 115.378 17.967 114.813 18.856 A 217.906 217.906 0 0 1 114.429 19.458 A 482.291 482.291 0 0 0 114.101 19.97 Q 113.025 21.655 112.939 21.826 Q 116.447 21.556 118.07 21.535 A 20.195 20.195 0 0 1 118.335 21.533 Q 119.922 21.533 120.508 21.753 Q 121.094 21.973 121.851 22.974 A 13.131 13.131 0 0 0 122.357 23.604 Q 122.826 24.151 123.242 24.487 A 1.642 1.642 0 0 1 123.807 25.401 Q 123.875 25.676 123.877 26.004 A 3.284 3.284 0 0 1 123.877 26.025 A 1.631 1.631 0 0 1 123.438 27.131 Q 123.232 27.365 122.928 27.574 A 4.07 4.07 0 0 1 122.632 27.759 Q 121.387 28.467 119.971 28.613 A 3250.357 3250.357 0 0 1 117.297 28.877 Q 108.496 29.742 107.471 29.785 A 140.877 140.877 0 0 0 105.296 33.235 Q 101.76 39.01 96.474 48.544 A 823.631 823.631 0 0 0 96.411 48.657 Q 89.307 61.475 88.867 64.697 Q 88.672 66.162 88.672 67.09 Q 88.672 68.994 90.674 68.994 Q 92.251 68.994 94.1 68.04 A 13.675 13.675 0 0 0 95.117 67.456 A 35.047 35.047 0 0 0 99.545 64.168 A 32.476 32.476 0 0 0 99.609 64.111 Q 104.862 59.421 105.43 59.236 A 0.13 0.13 0 0 1 105.469 59.229 Q 106.738 59.229 106.738 63.623 A 5.083 5.083 0 0 1 105.652 66.746 A 7.685 7.685 0 0 1 104.541 67.92 A 122.646 122.646 0 0 1 101.611 70.37 Q 98.557 72.839 96.24 74.316 A 14.728 14.728 0 0 1 93.24 75.804 A 11.145 11.145 0 0 1 89.502 76.465 A 6.492 6.492 0 0 1 88.625 76.408 A 5.456 5.456 0 0 1 88.135 76.318 A 14.525 14.525 0 0 1 85.82 75.697 Q 83.635 74.897 82.398 73.462 Q 80.591 71.366 80.591 67.819 A 14.037 14.037 0 0 1 80.591 67.725 A 15.972 15.972 0 0 1 80.898 64.831 Q 81.403 62.2 82.739 58.96 A 93.128 93.128 0 0 1 85.138 53.644 A 121.281 121.281 0 0 1 88.086 47.998 A 371.127 371.127 0 0 1 95.831 34.717 A 320.333 320.333 0 0 1 98.633 30.225 L 96.777 30.469 A 491.004 491.004 0 0 1 94.82 30.684 Q 91.462 31.047 90.445 31.096 A 5.615 5.615 0 0 1 90.186 31.104 L 89.746 31.104 A 6.91 6.91 0 0 1 87.012 30.542 A 4.109 4.109 0 0 1 86.482 30.274 Q 85.905 29.922 85.75 29.484 A 0.992 0.992 0 0 1 85.693 29.15 A 2.067 2.067 0 0 1 85.95 28.169 Q 86.103 27.88 86.35 27.598 A 3.895 3.895 0 0 1 86.401 27.539 Q 86.927 26.959 87.143 26.568 A 1.517 1.517 0 0 0 87.256 26.318 A 2.113 2.113 0 0 1 87.611 25.677 Q 88.033 25.13 88.885 24.528 A 13.942 13.942 0 0 1 89.819 23.926 A 20.623 20.623 0 0 1 90.858 23.346 Q 91.85 22.833 92.557 22.642 A 3.145 3.145 0 0 1 93.164 22.534 A 118.325 118.325 0 0 1 95.073 22.425 A 106.623 106.623 0 0 1 95.337 22.412 A 230.466 230.466 0 0 1 96.448 22.363 A 314.971 314.971 0 0 1 97.681 22.314 A 121.33 121.33 0 0 0 98.29 22.29 Q 98.878 22.265 99.304 22.24 A 29.013 29.013 0 0 0 99.658 22.217 L 104.053 22.021 Q 108.154 15.869 109.692 14.111 Q 111.231 12.354 111.475 12.183 Q 111.711 12.017 112.406 12.012 A 6.084 6.084 0 0 1 112.451 12.012 Z M 49.658 24.121 L 49.414 25.098 Q 49.414 25.813 50.248 25.912 A 2.461 2.461 0 0 0 50.537 25.928 A 8.625 8.625 0 0 0 52.499 25.674 Q 55.052 25.072 58.691 23.047 A 53.432 53.432 0 0 0 62.566 20.682 Q 64.347 19.482 65.794 18.257 A 28.177 28.177 0 0 0 67.041 17.139 Q 69.373 14.914 69.992 13.244 A 3.274 3.274 0 0 0 70.215 12.109 A 1.408 1.408 0 0 0 69.335 10.763 Q 68.686 10.45 67.557 10.407 A 9.747 9.747 0 0 0 67.188 10.4 Q 62.574 10.4 56.969 12.346 A 49.66 49.66 0 0 0 55.103 13.037 A 71.1 71.1 0 0 0 42.793 19.354 A 78.535 78.535 0 0 0 41.992 19.873 A 111.726 111.726 0 0 0 31.337 27.846 A 125.521 125.521 0 0 0 29.395 29.517 A 114.305 114.305 0 0 0 22.59 35.982 A 91.891 91.891 0 0 0 18.579 40.405 A 72.806 72.806 0 0 0 14.41 45.795 A 55.249 55.249 0 0 0 11.133 51.074 Q 8.301 56.299 8.301 60.01 Q 8.301 61.475 9.155 62.598 A 2.769 2.769 0 0 0 10.971 63.665 A 4.199 4.199 0 0 0 11.67 63.721 Q 16.797 63.721 28.198 55.859 A 174.952 174.952 0 0 0 37.227 49.16 Q 41.93 45.448 47.1 40.949 A 372.124 372.124 0 0 0 54.395 34.424 Q 54.59 34.229 55.078 33.691 A 9.602 9.602 0 0 1 55.925 32.773 Q 56.393 32.331 56.871 32.023 A 5.104 5.104 0 0 1 57.275 31.787 A 31.725 31.725 0 0 1 54.972 32.619 Q 52.715 33.33 51.048 33.392 A 8.437 8.437 0 0 1 50.732 33.398 A 9.44 9.44 0 0 1 48.883 33.227 Q 47.545 32.96 46.533 32.275 Q 44.873 31.152 44.873 29.224 Q 44.873 27.339 46.505 25.664 A 8.439 8.439 0 0 1 46.582 25.586 A 18.723 18.723 0 0 1 47.234 24.962 Q 48.43 23.877 48.975 23.877 Q 49.493 23.877 49.618 24.017 A 0.151 0.151 0 0 1 49.658 24.121 Z M 84.747 64.304 A 11.749 11.749 0 0 0 84.766 63.623 Q 84.766 59.229 83.496 59.229 A 0.184 0.184 0 0 0 83.48 59.229 Q 82.804 59.29 78.272 64.16 A 19.77 19.77 0 0 1 76.86 65.507 A 23.408 23.408 0 0 1 74.097 67.554 A 13.228 13.228 0 0 1 73.823 67.723 Q 72.866 68.3 71.937 68.633 A 7.381 7.381 0 0 1 69.434 69.092 A 4.923 4.923 0 0 1 68.856 69.06 Q 67.188 68.862 67.188 67.432 Q 67.188 66.515 67.66 65.291 A 13.035 13.035 0 0 1 68.164 64.16 Q 68.469 63.58 68.727 63.105 A 59.204 59.204 0 0 1 69.019 62.573 A 13.824 13.824 0 0 1 69.099 62.43 Q 69.355 61.982 69.733 61.392 A 43.897 43.897 0 0 1 70.044 60.913 Q 70.58 60.1 70.777 59.754 A 2.907 2.907 0 0 0 70.85 59.619 Q 81.018 42.102 82.289 39.053 A 2.006 2.006 0 0 0 82.471 38.477 A 2.09 2.09 0 0 0 82.469 38.403 Q 82.431 37.309 81.25 35.986 A 4.95 4.95 0 0 0 80.579 35.356 A 3.352 3.352 0 0 0 78.491 34.619 Q 77.314 34.619 75.335 35.864 A 22.46 22.46 0 0 0 74.048 36.743 A 40.593 40.593 0 0 0 71.517 38.745 A 30.418 30.418 0 0 0 69.116 41.04 Q 67.09 43.213 67.09 43.726 Q 67.09 44.128 67.707 44.877 A 9.602 9.602 0 0 0 68.091 45.313 A 13.567 13.567 0 0 1 68.432 45.692 Q 68.914 46.25 69.044 46.559 A 0.519 0.519 0 0 1 69.092 46.753 Q 69.092 47.073 67.036 50.441 A 225.919 225.919 0 0 1 66.406 51.465 A 136.647 136.647 0 0 0 64.392 54.834 A 164.92 164.92 0 0 0 61.035 60.938 Q 59.105 64.623 58.562 67.046 A 7.878 7.878 0 0 0 58.35 68.75 A 5.372 5.372 0 0 0 58.678 70.583 Q 59.305 72.324 61.133 74.023 Q 63.916 76.611 67.773 76.611 A 12.227 12.227 0 0 0 70.68 76.234 Q 73.483 75.547 76.856 73.608 A 22.409 22.409 0 0 0 78.605 72.495 A 17.81 17.81 0 0 0 84.473 65.723 Q 84.692 65.247 84.747 64.304 Z M 198.34 37.207 L 198.34 37.5 Q 199.023 37.402 200.488 37.402 A 3.669 3.669 0 0 1 201.971 37.732 Q 202.722 38.061 203.491 38.721 A 4.149 4.149 0 0 1 204.756 40.71 Q 204.961 41.382 205.012 42.193 A 8.807 8.807 0 0 1 205.029 42.749 Q 205.029 45.203 203.468 48.978 A 38.13 38.13 0 0 1 203.125 49.78 A 41.132 41.132 0 0 1 200.535 54.688 A 52.77 52.77 0 0 1 197.9 58.569 Q 194.58 63.037 190.601 66.968 Q 186.621 70.898 182.007 73.413 A 25.333 25.333 0 0 1 178.936 74.845 Q 177.252 75.488 175.698 75.749 A 12.452 12.452 0 0 1 173.633 75.928 A 9.666 9.666 0 0 1 170.923 75.566 A 7.375 7.375 0 0 1 167.603 73.56 Q 165.332 71.191 165.332 66.968 A 20.306 20.306 0 0 1 165.788 62.81 Q 166.192 60.881 166.953 58.797 A 36.692 36.692 0 0 1 167.407 57.617 A 34.97 34.97 0 0 1 171.193 50.6 A 31.491 31.491 0 0 1 172.754 48.56 A 52.709 52.709 0 0 1 179.834 41.504 A 43.952 43.952 0 0 1 184.128 38.43 Q 188.876 35.477 192.823 35.149 A 11.761 11.761 0 0 1 193.799 35.107 A 8.718 8.718 0 0 1 195.34 35.235 Q 196.173 35.385 196.83 35.711 A 4.074 4.074 0 0 1 197.852 36.426 A 2.651 2.651 0 0 1 198.062 36.636 Q 198.34 36.949 198.34 37.207 Z M 195.557 43.896 L 195.215 43.896 Q 193.79 43.896 193.553 42.166 A 5.622 5.622 0 0 1 193.506 41.406 A 21.42 21.42 0 0 0 190.089 42.891 Q 188.481 43.753 186.81 44.942 A 38.115 38.115 0 0 0 186.035 45.508 A 36.105 36.105 0 0 0 179.053 52.441 Q 173.744 59.243 172.874 64.248 A 11.192 11.192 0 0 0 172.705 65.967 Q 172.705 68.622 174.592 68.699 A 2.807 2.807 0 0 0 174.707 68.701 Q 176.232 68.701 178.889 67.172 A 31.951 31.951 0 0 0 180.664 66.064 Q 184.086 63.783 187.453 59.82 A 50.586 50.586 0 0 0 188.501 58.545 A 88.903 88.903 0 0 0 190.939 55.341 Q 191.992 53.885 192.836 52.568 A 38.13 38.13 0 0 0 194.312 50.073 Q 196.013 46.907 196.214 45.527 A 2.357 2.357 0 0 0 196.24 45.19 A 3.668 3.668 0 0 0 196.217 44.755 Q 196.164 44.315 195.992 44.1 A 0.53 0.53 0 0 0 195.557 43.896 Z M 91.988 23.873 A 6.63 6.63 0 0 0 92.676 20.996 A 3.611 3.611 0 0 0 92.592 20.194 A 2.394 2.394 0 0 0 91.895 18.945 A 2.621 2.621 0 0 0 90.673 18.307 A 3.853 3.853 0 0 0 89.795 18.213 A 6.563 6.563 0 0 0 86.148 19.332 A 9.665 9.665 0 0 0 84.351 20.874 A 10.724 10.724 0 0 0 82.897 22.821 A 7.239 7.239 0 0 0 81.885 26.465 Q 81.885 28.731 83.564 29.244 A 3.862 3.862 0 0 0 84.692 29.395 Q 86.625 29.395 88.454 28.064 A 11.216 11.216 0 0 0 90.088 26.587 Q 91.341 25.227 91.988 23.873 Z"
              vector-effect="non-scaling-stroke"/>
    </g>
</svg>